<svg version="1.1" id="Layer_1" xmlns="http://www.w3.org/2000/svg" xmlns:xlink="http://www.w3.org/1999/xlink" x="0px" y="0px"
	 width="100%" viewBox="0 0 467 185" enable-background="new 0 0 467 185" xml:space="preserve">
<path fill="#FDFDFD" opacity="0.000000" stroke="none" 
	d="
M354.000000,186.000000 
	C236.000046,186.000000 118.500084,186.000000 1.000095,186.000000 
	C1.000063,124.333397 1.000063,62.666794 1.000031,1.000144 
	C156.666550,1.000096 312.333099,1.000096 467.999725,1.000048 
	C467.999817,62.666523 467.999817,124.333046 467.999908,185.999786 
	C430.166656,186.000000 392.333344,186.000000 354.000000,186.000000 
M125.500046,8.140121 
	C89.374298,8.140121 53.248550,8.140121 16.898647,8.140121 
	C16.898647,11.550518 16.898647,14.607479 16.898647,17.496941 
	C160.117462,17.496941 302.986206,17.496941 445.687805,17.496941 
	C445.687805,14.209922 445.687805,11.290527 445.687805,8.140122 
	C339.070251,8.140122 232.785156,8.140122 125.500046,8.140121 
M156.500641,171.814651 
	C252.904282,172.780502 349.307922,173.746368 445.739685,174.712509 
	C445.739685,171.300873 445.739685,168.383392 445.739685,165.226868 
	C302.629913,163.652542 159.787918,162.081177 16.788940,160.508072 
	C16.788940,164.090759 16.788940,167.004166 16.788940,170.213242 
	C63.223019,170.745255 109.361862,171.273880 156.500641,171.814651 
M112.979889,97.492264 
	C108.149170,85.489647 103.271622,73.505508 98.522392,61.470730 
	C97.408569,58.648273 96.210312,57.114815 92.673393,57.941849 
	C88.775604,58.853264 86.178459,56.880016 84.700035,52.964199 
	C81.772469,45.210110 78.502960,37.585167 75.377945,29.905563 
	C72.269417,22.266472 72.334793,22.432318 64.809868,25.310123 
	C61.049286,26.748312 60.589069,28.671686 62.074123,32.140869 
	C65.728264,40.677155 69.111481,49.329327 72.612686,57.931210 
	C74.103989,61.595100 73.796944,64.905769 70.191505,67.062492 
	C67.651886,68.581657 67.318626,70.363945 68.342003,72.887245 
	C78.876297,98.861259 89.332787,124.866989 99.940025,150.811111 
	C101.993004,155.832474 105.740005,157.178131 110.943329,155.242371 
	C115.451111,153.565353 119.938828,151.821274 124.364578,149.940170 
	C130.035156,147.529984 131.622787,143.658401 129.300827,137.878662 
	C123.983475,124.642975 118.582359,111.440933 112.979889,97.492264 
M404.826721,49.698044 
	C404.826721,47.441120 404.826721,45.184196 404.826721,42.927273 
	C408.738281,49.496590 411.672791,55.993244 414.606201,62.490402 
	C417.862152,69.702011 417.861694,69.702217 425.856293,68.512909 
	C425.856293,54.316727 425.856293,40.120544 425.856293,26.080101 
	C422.933319,26.080101 420.356567,26.080101 417.349182,26.080101 
	C417.349182,34.876987 417.349182,43.347717 417.349182,51.818447 
	C413.612885,45.338230 410.645660,38.722614 407.667267,32.112041 
	C404.454468,24.981174 404.449921,24.983225 396.319397,26.284605 
	C396.319397,40.501476 396.319397,54.709431 396.319397,68.749146 
	C399.250427,68.749146 401.851837,68.749146 404.826721,68.749146 
	C404.826721,62.550125 404.826721,56.597477 404.826721,49.698044 
M293.146057,27.728539 
	C293.146057,41.346130 293.146057,54.963722 293.146057,69.001656 
	C298.205322,69.001656 302.831848,69.049141 307.457001,68.989304 
	C312.905914,68.918816 317.756378,67.653610 320.062500,61.950470 
	C322.433411,56.087059 321.123840,51.295277 315.894348,46.431450 
	C322.407288,40.360531 322.061890,29.621607 314.477081,27.561659 
	C307.805298,25.749672 300.324829,26.915419 293.146057,27.728539 
M371.012085,60.564301 
	C371.012085,58.123276 371.012085,55.682255 371.012085,53.241230 
	C371.508789,52.922195 372.005493,52.603161 372.502197,52.284126 
	C373.893860,53.634911 375.549286,54.809193 376.604034,56.385429 
	C377.688385,58.005959 378.188629,60.017914 378.940643,61.860138 
	C382.071655,69.529999 382.071106,69.530220 391.233154,68.661194 
	C388.771057,62.793694 386.356659,57.039909 383.882019,51.142593 
	C384.901245,50.180038 385.922852,49.359783 386.773010,48.389336 
	C393.296661,40.942245 389.908112,27.762024 380.693024,26.311058 
	C374.764343,25.377552 368.569336,26.135822 362.403046,26.135822 
	C362.403046,40.478516 362.403046,54.544685 362.403046,68.722977 
	C365.358429,68.722977 368.072021,68.722977 371.012085,68.722977 
	C371.012085,66.131859 371.012085,63.824215 371.012085,60.564301 
M280.633484,116.232918 
	C276.198120,109.742393 265.503784,107.429367 254.473450,110.534615 
	C254.473450,124.635040 254.473450,138.710602 254.473450,152.824280 
	C257.388733,152.824280 259.995483,152.824280 262.994263,152.824280 
	C262.994263,147.551239 262.994263,142.446869 262.994263,137.342499 
	C263.433746,137.001678 263.873230,136.660873 264.312744,136.320068 
	C265.737976,137.598343 267.478088,138.667007 268.505341,140.210220 
	C269.676697,141.969940 270.210144,144.153641 271.025269,146.151276 
	C274.258667,154.075623 274.259308,154.075363 283.111389,152.340637 
	C280.676788,146.536530 278.260315,140.775604 275.850311,135.030182 
	C282.239716,130.111618 283.096771,123.940506 280.633484,116.232918 
M274.578278,57.886868 
	C276.090607,61.554321 277.602966,65.221771 279.046417,68.722198 
	C282.214630,68.722198 285.107117,68.722198 288.491943,68.722198 
	C285.914612,62.567646 283.509308,56.823868 281.108093,51.089787 
	C282.239868,50.030388 283.319275,49.232651 284.133270,48.221302 
	C287.695282,43.795593 287.821503,38.748714 286.319275,33.600414 
	C285.022552,29.156265 281.656708,26.503958 277.250214,26.151358 
	C271.518494,25.692711 265.722290,26.039240 259.826019,26.039240 
	C259.826019,40.404316 259.826019,54.565800 259.826019,68.755539 
	C262.716614,68.755539 265.302429,68.755539 268.330872,68.755539 
	C268.330872,63.455353 268.330872,58.393986 268.330872,53.356091 
	C272.557709,53.266880 272.557709,53.266880 274.578278,57.886868 
M213.105087,42.860111 
	C209.036041,42.860111 204.966995,42.860111 200.584198,42.860111 
	C200.584198,36.942642 200.584198,31.500383 200.584198,25.912258 
	C197.645157,25.912258 195.039291,25.912258 192.245743,25.912258 
	C192.245743,40.297085 192.245743,54.519348 192.245743,68.639267 
	C195.221252,68.639267 197.931641,68.639267 200.924713,68.639267 
	C200.924713,62.496666 200.924713,56.714413 200.924713,50.794540 
	C205.291489,50.794540 209.349335,50.794540 213.883392,50.794540 
	C213.883392,57.022865 213.883392,62.914005 213.883392,68.708527 
	C216.960098,68.708527 219.542816,68.708527 222.047318,68.708527 
	C222.047318,54.325512 222.047318,40.237957 222.047318,25.992516 
	C219.238281,25.992516 216.671982,25.992516 214.303024,25.992516 
	C214.008469,26.359930 213.821609,26.484121 213.819946,26.610752 
	C213.752029,31.770008 213.700836,36.929485 213.105087,42.860111 
M326.920807,47.485134 
	C326.954071,50.983753 326.762848,54.502056 327.067535,57.976879 
	C327.695648,65.139732 332.366577,69.118103 340.272095,69.564758 
	C347.824951,69.991501 354.279205,66.478073 354.668671,60.165413 
	C355.369537,48.805233 354.866669,37.370789 354.866669,26.071342 
	C352.083862,26.071342 349.512024,26.071342 346.726746,26.071342 
	C346.726746,28.210855 346.727509,30.025274 346.726593,31.839693 
	C346.722717,39.671169 346.816803,47.504604 346.660919,55.333057 
	C346.606384,58.071827 346.697083,61.206757 342.936035,62.068821 
	C338.414490,63.105194 335.936432,61.294685 335.867950,56.356289 
	C335.727844,46.250408 335.825897,36.141228 335.825897,25.931435 
	C332.562164,25.931435 329.955780,25.931435 327.419434,25.931435 
	C327.213104,26.407385 326.975739,26.700983 326.974213,26.995800 
	C326.940674,33.493896 326.933228,39.992126 326.920807,47.485134 
M168.610855,69.053360 
	C180.534073,70.959740 187.314667,65.629585 186.106918,55.320995 
	C185.467361,49.862068 181.837601,46.960796 177.287949,44.753204 
	C174.611954,43.454746 171.695679,42.359177 169.513489,40.454952 
	C168.369705,39.456863 167.891815,36.695438 168.386002,35.132885 
	C168.790817,33.852921 171.069290,32.444988 172.535721,32.424541 
	C173.993835,32.404209 175.678894,33.838367 176.875809,35.026291 
	C177.698303,35.842583 177.857193,37.327488 178.179718,38.167297 
	C181.084335,38.167297 183.512115,38.167297 185.933640,38.167297 
	C185.848755,30.878187 181.980911,26.311420 175.197021,25.191740 
	C168.337708,24.059610 161.730148,27.508738 159.705109,33.278442 
	C157.639633,39.163303 159.974030,44.748161 166.147156,48.353523 
	C168.001099,49.436310 170.057938,50.165844 171.976822,51.145386 
	C173.300034,51.820858 175.167755,52.357433 175.688339,53.471760 
	C176.592148,55.406338 177.098511,57.795315 176.846146,59.881813 
	C176.729462,60.846363 174.277679,62.390053 173.158600,62.183884 
	C171.126312,61.809486 169.100845,60.560188 167.471024,59.198948 
	C166.678452,58.536987 166.785339,56.798100 166.501434,55.614990 
	C163.553421,55.614990 160.853409,55.614990 157.977859,55.614990 
	C158.287704,62.618126 161.710052,66.775291 168.610855,69.053360 
M304.807159,145.510056 
	C298.626465,147.245071 298.268219,147.030426 294.612579,139.461899 
	C292.110138,139.461899 289.651215,139.461899 287.206146,139.461899 
	C286.825989,148.025299 293.181030,153.935120 302.174255,153.613068 
	C311.022888,153.296219 316.005981,147.804245 314.956116,139.484589 
	C314.306885,134.339966 311.057892,131.224411 306.659515,129.046402 
	C304.137238,127.797401 301.218414,126.998016 299.208557,125.186005 
	C297.811707,123.926659 297.061188,121.251404 297.184235,119.281303 
	C297.252258,118.192184 299.863861,116.287682 301.061768,116.473412 
	C302.826141,116.746956 304.457092,118.442192 305.928833,119.771194 
	C306.532837,120.316635 306.574158,121.485207 306.787323,122.119766 
	C309.758698,122.119766 312.315765,122.119766 315.312317,122.119766 
	C314.880402,120.267326 314.684174,118.800766 314.195618,117.439072 
	C312.146606,111.727776 306.973206,108.641212 300.370331,109.085754 
	C294.177032,109.502708 289.182770,113.235413 288.076996,118.273750 
	C286.797699,124.102654 289.152283,129.071121 294.959717,132.408371 
	C296.963928,133.560120 299.141998,134.415985 301.263306,135.355942 
	C305.573517,137.265762 307.482880,140.181290 304.807159,145.510056 
M236.590210,25.735321 
	C234.326157,25.735321 232.062088,25.735321 229.685516,25.735321 
	C229.685516,40.472084 229.685516,54.570412 229.685516,68.692169 
	C237.982269,68.692169 246.027695,68.692169 254.041992,68.692169 
	C254.041992,66.266541 254.041992,64.165878 254.041992,61.616631 
	C248.689636,61.616631 243.595032,61.616631 238.518829,61.616631 
	C238.518829,57.598000 238.518829,54.039101 238.518829,50.060234 
	C243.117050,50.060234 247.378693,50.060234 251.633820,50.060234 
	C251.633820,47.556217 251.633820,45.498093 251.633820,43.026493 
	C247.083145,43.026493 242.819885,43.026493 238.411133,43.026493 
	C238.411133,39.531513 238.411133,36.462341 238.411133,32.964218 
	C243.728638,32.964218 248.821136,32.964218 253.877441,32.964218 
	C253.877441,30.313490 253.877441,28.107634 253.877441,25.735317 
	C248.206039,25.735317 242.885941,25.735317 236.590210,25.735321 
M196.094910,111.085869 
	C193.004974,110.511200 189.915054,109.936531 185.992920,109.207092 
	C190.417984,124.664452 194.463623,138.796432 198.493607,152.873734 
	C201.762177,152.873734 204.567627,152.873734 207.682541,152.873734 
	C211.786652,138.621750 215.878342,124.412910 220.044525,109.945374 
	C216.480408,109.945374 213.532959,109.945374 210.362518,109.945374 
	C208.079987,119.553925 205.829468,129.027649 203.578949,138.501358 
	C203.230835,138.471237 202.882721,138.441116 202.534607,138.410995 
	C200.454330,129.588379 198.374069,120.765762 196.094910,111.085869 
M181.311981,116.992744 
	C186.765244,116.039604 183.017471,112.367607 183.822189,109.984695 
	C175.466644,109.984695 167.532623,109.984695 159.478516,109.984695 
	C159.478516,124.425049 159.478516,138.623581 159.478516,152.648193 
	C167.883118,152.648193 175.947510,152.648193 183.763474,152.648193 
	C183.763474,150.194427 183.763474,148.103500 183.763474,145.605804 
	C178.380905,145.605804 173.300064,145.605804 168.315125,145.605804 
	C168.315125,141.600479 168.315125,138.020874 168.315125,134.010406 
	C172.865601,134.010406 177.118210,134.010406 181.341339,134.010406 
	C181.341339,131.502655 181.341339,129.447937 181.341339,126.983032 
	C176.748947,126.983032 172.498444,126.983032 168.236023,126.983032 
	C168.236023,123.479965 168.236023,120.398422 168.236023,116.993019 
	C172.422028,116.993019 176.384827,116.993019 181.311981,116.992744 
M237.609802,116.993050 
	C241.372711,116.993050 245.135635,116.993050 248.786652,116.993050 
	C248.786652,114.265625 248.786652,112.165970 248.786652,110.101418 
	C240.498047,110.101418 232.458557,110.101418 224.408508,110.101418 
	C224.408508,124.528992 224.408508,138.598663 224.408508,152.723938 
	C232.744934,152.723938 240.811981,152.723938 248.836349,152.723938 
	C248.836349,150.346924 248.836349,148.255600 248.836349,145.746414 
	C243.536194,145.746414 238.452805,145.746414 233.237183,145.746414 
	C233.237183,141.743637 233.237183,138.166382 233.237183,133.969086 
	C237.818649,133.969086 242.190811,133.969086 246.413254,133.969086 
	C246.413254,131.398575 246.413254,129.464813 246.413254,127.133621 
	C241.899826,127.133621 237.647003,127.133621 233.004578,127.133621 
	C233.004578,124.603714 233.209518,122.456017 232.956085,120.363853 
	C232.584778,117.298431 234.034225,116.599648 237.609802,116.993050 
M349.993347,147.401276 
	C349.993347,149.174545 349.993347,150.947815 349.993347,152.709564 
	C358.570801,152.709564 366.638092,152.709564 374.665405,152.709564 
	C374.665405,150.330582 374.665405,148.249588 374.665405,145.721161 
	C369.333466,145.721161 364.248505,145.721161 359.114075,145.721161 
	C359.114075,141.686600 359.114075,138.111969 359.114075,134.057449 
	C363.632263,134.057449 367.875916,134.057449 371.921631,134.057449 
	C371.921631,131.501022 371.921631,129.439575 371.921631,126.882156 
	C367.338074,126.882156 363.115265,126.882156 359.168396,126.882156 
	C359.168396,123.293503 359.168396,120.216469 359.168396,116.731613 
	C364.587494,116.731613 369.666840,116.731613 374.568604,116.731613 
	C374.568604,114.195412 374.568604,112.116127 374.568604,109.917419 
	C366.322693,109.917419 358.387604,109.917419 349.993347,109.917419 
	C349.993347,122.194344 349.993347,134.309219 349.993347,147.401276 
M391.434570,153.004395 
	C393.356079,153.004395 395.277618,153.004395 398.201141,153.004395 
	C394.076874,136.536270 404.300537,124.201324 408.545074,110.262505 
	C399.737152,108.913940 399.735657,108.913445 397.149353,116.669609 
	C395.936371,120.307205 394.730377,123.947136 393.050262,129.003204 
	C391.234436,123.607201 389.512299,119.816132 388.730011,115.840134 
	C387.674469,110.475426 384.689850,108.850143 379.699188,109.746902 
	C379.059753,109.861794 378.407410,109.904785 377.784698,109.978294 
	C377.730194,110.419876 377.576538,110.784081 377.670258,111.066086 
	C377.983826,112.009697 378.395782,112.920113 378.752563,113.849937 
	C383.403595,125.969437 390.928345,137.318878 388.765198,151.289948 
	C388.692352,151.760361 389.879669,152.425888 391.434570,153.004395 
M320.991699,126.501343 
	C320.991699,135.252151 320.991699,144.002975 320.991699,152.771362 
	C329.267242,152.771362 337.003876,152.771362 344.698486,152.771362 
	C344.698486,150.319748 344.698486,148.116592 344.698486,145.555725 
	C339.592285,145.555725 334.835083,145.555725 329.634338,145.555725 
	C329.634338,133.461166 329.634338,121.729019 329.634338,109.945251 
	C326.575043,109.945251 323.977234,109.945251 320.991699,109.945251 
	C320.991699,115.256699 320.991699,120.379601 320.991699,126.501343 
M51.100742,146.246506 
	C59.426907,155.892075 72.552132,155.519043 78.826180,145.458511 
	C82.938843,138.863785 81.695236,129.762314 75.969315,124.550468 
	C69.936188,119.058983 60.935127,118.732407 54.507004,123.771782 
	C47.728821,129.085571 46.339111,137.140488 51.100742,146.246506 
z"/>
<path fill="#e0f2e9" opacity="1.000000" stroke="none" 
	d="
M126.000053,8.140121 
	C232.785156,8.140122 339.070251,8.140122 445.687805,8.140122 
	C445.687805,11.290527 445.687805,14.209922 445.687805,17.496941 
	C302.986206,17.496941 160.117462,17.496941 16.898647,17.496941 
	C16.898647,14.607479 16.898647,11.550518 16.898647,8.140121 
	C53.248550,8.140121 89.374298,8.140121 126.000053,8.140121 
z"/>
<path fill="#e0f2e9" opacity="1.000000" stroke="none" 
	d="
M156.000671,171.808563 
	C109.361862,171.273880 63.223019,170.745255 16.788940,170.213242 
	C16.788940,167.004166 16.788940,164.090759 16.788940,160.508072 
	C159.787918,162.081177 302.629913,163.652542 445.739685,165.226868 
	C445.739685,168.383392 445.739685,171.300873 445.739685,174.712509 
	C349.307922,173.746368 252.904282,172.780502 156.000671,171.808563 
z"/>
<path fill="#e0f2e9" opacity="1.000000" stroke="none" 
	d="
M113.097572,97.858749 
	C118.582359,111.440933 123.983475,124.642975 129.300827,137.878662 
	C131.622787,143.658401 130.035156,147.529984 124.364578,149.940170 
	C119.938828,151.821274 115.451111,153.565353 110.943329,155.242371 
	C105.740005,157.178131 101.993004,155.832474 99.940025,150.811111 
	C89.332787,124.866989 78.876297,98.861259 68.342003,72.887245 
	C67.318626,70.363945 67.651886,68.581657 70.191505,67.062492 
	C73.796944,64.905769 74.103989,61.595100 72.612686,57.931210 
	C69.111481,49.329327 65.728264,40.677155 62.074123,32.140869 
	C60.589069,28.671686 61.049286,26.748312 64.809868,25.310123 
	C72.334793,22.432318 72.269417,22.266472 75.377945,29.905563 
	C78.502960,37.585167 81.772469,45.210110 84.700035,52.964199 
	C86.178459,56.880016 88.775604,58.853264 92.673393,57.941849 
	C96.210312,57.114815 97.408569,58.648273 98.522392,61.470730 
	C103.271622,73.505508 108.149170,85.489647 113.097572,97.858749 
M123.586983,144.160172 
	C123.701645,142.527267 124.391693,140.664825 123.845444,139.295593 
	C114.250191,115.243919 104.552551,91.232414 94.676895,67.294800 
	C94.043419,65.759308 91.920006,64.180756 90.248512,63.853268 
	C85.009056,62.826748 81.661011,60.244041 79.824432,55.091602 
	C77.150970,47.591320 74.027451,40.248623 70.971909,32.890186 
	C70.469109,31.679335 69.332016,30.731867 68.488068,29.662674 
	C68.045349,29.973900 67.602623,30.285126 67.159904,30.596352 
	C70.211525,38.291615 72.902023,46.156853 76.420532,53.632362 
	C79.670624,60.537544 80.436623,66.628189 73.828148,71.590759 
	C84.058113,96.937439 94.128624,121.693176 103.991104,146.531509 
	C105.510727,150.358627 107.206520,151.349060 110.989235,149.479553 
	C114.846054,147.573441 118.974457,146.216843 123.586983,144.160172 
z"/>
<path fill="#e0f2e9" opacity="1.000000" stroke="none" 
	d="
M404.826721,50.171432 
	C404.826721,56.597477 404.826721,62.550125 404.826721,68.749146 
	C401.851837,68.749146 399.250427,68.749146 396.319397,68.749146 
	C396.319397,54.709431 396.319397,40.501476 396.319397,26.284605 
	C404.449921,24.983225 404.454468,24.981174 407.667267,32.112041 
	C410.645660,38.722614 413.612885,45.338230 417.349182,51.818447 
	C417.349182,43.347717 417.349182,34.876987 417.349182,26.080101 
	C420.356567,26.080101 422.933319,26.080101 425.856293,26.080101 
	C425.856293,40.120544 425.856293,54.316727 425.863342,68.514099 
	C417.861694,69.702217 417.862152,69.702011 414.606201,62.490402 
	C411.672791,55.993244 408.738281,49.496590 404.826721,42.927273 
	C404.826721,45.184196 404.826721,47.441120 404.826721,50.171432 
z"/>
<path fill="#e0f2e9" opacity="1.000000" stroke="none" 
	d="
M293.173767,27.247320 
	C300.324829,26.915419 307.805298,25.749672 314.477081,27.561659 
	C322.061890,29.621607 322.407288,40.360531 315.894348,46.431450 
	C321.123840,51.295277 322.433411,56.087059 320.062500,61.950470 
	C317.756378,67.653610 312.905914,68.918816 307.457001,68.989304 
	C302.831848,69.049141 298.205322,69.001656 293.146057,69.001656 
	C293.146057,54.963722 293.146057,41.346130 293.173767,27.247320 
M301.990631,52.731812 
	C301.990631,55.678890 301.990631,58.625973 301.990631,61.805473 
	C304.175781,61.805473 306.069092,62.328396 307.382385,61.678757 
	C309.198761,60.780266 311.699219,59.126312 311.876740,57.565067 
	C312.129425,55.342316 311.150391,51.650440 309.580444,50.888847 
	C307.655273,49.954933 304.577484,51.396946 301.990631,52.731812 
M301.995361,34.739407 
	C301.995361,37.672203 301.995361,40.605000 301.995361,43.949398 
	C305.717529,43.581871 309.760834,45.122379 311.126678,40.615871 
	C311.699158,38.727077 311.225281,34.956829 310.121033,34.449505 
	C307.815613,33.390358 304.774658,33.932220 301.995361,34.739407 
z"/>
<path fill="#e0f2e9" opacity="1.000000" stroke="none" 
	d="
M371.012085,61.040436 
	C371.012085,63.824215 371.012085,66.131859 371.012085,68.722977 
	C368.072021,68.722977 365.358429,68.722977 362.403046,68.722977 
	C362.403046,54.544685 362.403046,40.478516 362.403046,26.135822 
	C368.569336,26.135822 374.764343,25.377552 380.693024,26.311058 
	C389.908112,27.762024 393.296661,40.942245 386.773010,48.389336 
	C385.922852,49.359783 384.901245,50.180038 383.882019,51.142593 
	C386.356659,57.039909 388.771057,62.793694 391.233154,68.661194 
	C382.071106,69.530220 382.071655,69.529999 378.940643,61.860138 
	C378.188629,60.017914 377.688385,58.005959 376.604034,56.385429 
	C375.549286,54.809193 373.893860,53.634911 372.502197,52.284126 
	C372.005493,52.603161 371.508789,52.922195 371.012085,53.241230 
	C371.012085,55.682255 371.012085,58.123276 371.012085,61.040436 
M380.660614,42.771561 
	C381.933563,33.862713 379.808228,31.813540 371.328491,33.601948 
	C371.328491,37.708164 371.328491,41.777115 371.328491,47.085163 
	C374.766296,45.689857 377.490540,44.584148 380.660614,42.771561 
z"/>
<path fill="#e0f2e9" opacity="1.000000" stroke="none" 
	d="
M280.789062,116.599640 
	C283.096771,123.940506 282.239716,130.111618 275.850311,135.030182 
	C278.260315,140.775604 280.676788,146.536530 283.111389,152.340637 
	C274.259308,154.075363 274.258667,154.075623 271.025269,146.151276 
	C270.210144,144.153641 269.676697,141.969940 268.505341,140.210220 
	C267.478088,138.667007 265.737976,137.598343 264.312744,136.320068 
	C263.873230,136.660873 263.433746,137.001678 262.994263,137.342499 
	C262.994263,142.446869 262.994263,147.551239 262.994263,152.824280 
	C259.995483,152.824280 257.388733,152.824280 254.473450,152.824280 
	C254.473450,138.710602 254.473450,124.635040 254.473450,110.534615 
	C265.503784,107.429367 276.198120,109.742393 280.789062,116.599640 
M263.004333,126.302902 
	C263.075500,127.425728 263.146637,128.548553 263.308746,131.106323 
	C266.734650,129.660995 270.368042,129.161728 272.057465,127.082741 
	C273.368866,125.468971 273.318237,120.911163 271.952515,119.415169 
	C270.166718,117.459061 266.488129,117.230957 263.004303,116.049347 
	C263.004303,120.112846 263.004303,122.738411 263.004333,126.302902 
z"/>
<path fill="#e0f2e9" opacity="1.000000" stroke="none" 
	d="
M274.392639,57.543716 
	C272.557709,53.266880 272.557709,53.266880 268.330872,53.356091 
	C268.330872,58.393986 268.330872,63.455353 268.330872,68.755539 
	C265.302429,68.755539 262.716614,68.755539 259.826019,68.755539 
	C259.826019,54.565800 259.826019,40.404316 259.826019,26.039240 
	C265.722290,26.039240 271.518494,25.692711 277.250214,26.151358 
	C281.656708,26.503958 285.022552,29.156265 286.319275,33.600414 
	C287.821503,38.748714 287.695282,43.795593 284.133270,48.221302 
	C283.319275,49.232651 282.239868,50.030388 281.108093,51.089787 
	C283.509308,56.823868 285.914612,62.567646 288.491943,68.722198 
	C285.107117,68.722198 282.214630,68.722198 279.046417,68.722198 
	C277.602966,65.221771 276.090607,61.554321 274.392639,57.543716 
M277.734589,43.235256 
	C279.547913,34.428871 277.300507,32.052551 268.416870,33.501686 
	C268.416870,37.528267 268.416870,41.566139 268.416870,46.835007 
	C271.757416,45.716854 274.517151,44.793110 277.734589,43.235256 
z"/>
<path fill="#e0f2e9" opacity="1.000000" stroke="none" 
	d="
M213.376282,42.474525 
	C213.700836,36.929485 213.752029,31.770008 213.819946,26.610752 
	C213.821609,26.484121 214.008469,26.359930 214.303024,25.992516 
	C216.671982,25.992516 219.238281,25.992516 222.047318,25.992516 
	C222.047318,40.237957 222.047318,54.325512 222.047318,68.708527 
	C219.542816,68.708527 216.960098,68.708527 213.883392,68.708527 
	C213.883392,62.914005 213.883392,57.022865 213.883392,50.794540 
	C209.349335,50.794540 205.291489,50.794540 200.924713,50.794540 
	C200.924713,56.714413 200.924713,62.496666 200.924713,68.639267 
	C197.931641,68.639267 195.221252,68.639267 192.245743,68.639267 
	C192.245743,54.519348 192.245743,40.297085 192.245743,25.912258 
	C195.039291,25.912258 197.645157,25.912258 200.584198,25.912258 
	C200.584198,31.500383 200.584198,36.942642 200.584198,42.860111 
	C204.966995,42.860111 209.036041,42.860111 213.376282,42.474525 
z"/>
<path fill="#e0f2e9" opacity="1.000000" stroke="none" 
	d="
M326.920807,46.987732 
	C326.933228,39.992126 326.940674,33.493896 326.974213,26.995800 
	C326.975739,26.700983 327.213104,26.407385 327.419434,25.931435 
	C329.955780,25.931435 332.562164,25.931435 335.825897,25.931435 
	C335.825897,36.141228 335.727844,46.250408 335.867950,56.356289 
	C335.936432,61.294685 338.414490,63.105194 342.936035,62.068821 
	C346.697083,61.206757 346.606384,58.071827 346.660919,55.333057 
	C346.816803,47.504604 346.722717,39.671169 346.726593,31.839693 
	C346.727509,30.025274 346.726746,28.210855 346.726746,26.071342 
	C349.512024,26.071342 352.083862,26.071342 354.866669,26.071342 
	C354.866669,37.370789 355.369537,48.805233 354.668671,60.165413 
	C354.279205,66.478073 347.824951,69.991501 340.272095,69.564758 
	C332.366577,69.118103 327.695648,65.139732 327.067535,57.976879 
	C326.762848,54.502056 326.954071,50.983753 326.920807,46.987732 
z"/>
<path fill="#e0f2e9" opacity="1.000000" stroke="none" 
	d="
M168.221802,68.983612 
	C161.710052,66.775291 158.287704,62.618126 157.977859,55.614990 
	C160.853409,55.614990 163.553421,55.614990 166.501434,55.614990 
	C166.785339,56.798100 166.678452,58.536987 167.471024,59.198948 
	C169.100845,60.560188 171.126312,61.809486 173.158600,62.183884 
	C174.277679,62.390053 176.729462,60.846363 176.846146,59.881813 
	C177.098511,57.795315 176.592148,55.406338 175.688339,53.471760 
	C175.167755,52.357433 173.300034,51.820858 171.976822,51.145386 
	C170.057938,50.165844 168.001099,49.436310 166.147156,48.353523 
	C159.974030,44.748161 157.639633,39.163303 159.705109,33.278442 
	C161.730148,27.508738 168.337708,24.059610 175.197021,25.191740 
	C181.980911,26.311420 185.848755,30.878187 185.933640,38.167297 
	C183.512115,38.167297 181.084335,38.167297 178.179718,38.167297 
	C177.857193,37.327488 177.698303,35.842583 176.875809,35.026291 
	C175.678894,33.838367 173.993835,32.404209 172.535721,32.424541 
	C171.069290,32.444988 168.790817,33.852921 168.386002,35.132885 
	C167.891815,36.695438 168.369705,39.456863 169.513489,40.454952 
	C171.695679,42.359177 174.611954,43.454746 177.287949,44.753204 
	C181.837601,46.960796 185.467361,49.862068 186.106918,55.320995 
	C187.314667,65.629585 180.534073,70.959740 168.221802,68.983612 
z"/>
<path fill="#e0f2e9" opacity="1.000000" stroke="none" 
	d="
M305.076782,145.180298 
	C307.482880,140.181290 305.573517,137.265762 301.263306,135.355942 
	C299.141998,134.415985 296.963928,133.560120 294.959717,132.408371 
	C289.152283,129.071121 286.797699,124.102654 288.076996,118.273750 
	C289.182770,113.235413 294.177032,109.502708 300.370331,109.085754 
	C306.973206,108.641212 312.146606,111.727776 314.195618,117.439072 
	C314.684174,118.800766 314.880402,120.267326 315.312317,122.119766 
	C312.315765,122.119766 309.758698,122.119766 306.787323,122.119766 
	C306.574158,121.485207 306.532837,120.316635 305.928833,119.771194 
	C304.457092,118.442192 302.826141,116.746956 301.061768,116.473412 
	C299.863861,116.287682 297.252258,118.192184 297.184235,119.281303 
	C297.061188,121.251404 297.811707,123.926659 299.208557,125.186005 
	C301.218414,126.998016 304.137238,127.797401 306.659515,129.046402 
	C311.057892,131.224411 314.306885,134.339966 314.956116,139.484589 
	C316.005981,147.804245 311.022888,153.296219 302.174255,153.613068 
	C293.181030,153.935120 286.825989,148.025299 287.206146,139.461899 
	C289.651215,139.461899 292.110138,139.461899 294.612579,139.461899 
	C298.268219,147.030426 298.626465,147.245071 305.076782,145.180298 
z"/>
<path fill="#e0f2e9" opacity="1.000000" stroke="none" 
	d="
M237.078018,25.735319 
	C242.885941,25.735317 248.206039,25.735317 253.877441,25.735317 
	C253.877441,28.107634 253.877441,30.313490 253.877441,32.964218 
	C248.821136,32.964218 243.728638,32.964218 238.411133,32.964218 
	C238.411133,36.462341 238.411133,39.531513 238.411133,43.026493 
	C242.819885,43.026493 247.083145,43.026493 251.633820,43.026493 
	C251.633820,45.498093 251.633820,47.556217 251.633820,50.060234 
	C247.378693,50.060234 243.117050,50.060234 238.518829,50.060234 
	C238.518829,54.039101 238.518829,57.598000 238.518829,61.616631 
	C243.595032,61.616631 248.689636,61.616631 254.041992,61.616631 
	C254.041992,64.165878 254.041992,66.266541 254.041992,68.692169 
	C246.027695,68.692169 237.982269,68.692169 229.685516,68.692169 
	C229.685516,54.570412 229.685516,40.472084 229.685516,25.735321 
	C232.062088,25.735321 234.326157,25.735321 237.078018,25.735319 
z"/>
<path fill="#e0f2e9" opacity="1.000000" stroke="none" 
	d="
M196.194366,111.514511 
	C198.374069,120.765762 200.454330,129.588379 202.534607,138.410995 
	C202.882721,138.441116 203.230835,138.471237 203.578949,138.501358 
	C205.829468,129.027649 208.079987,119.553925 210.362518,109.945374 
	C213.532959,109.945374 216.480408,109.945374 220.044525,109.945374 
	C215.878342,124.412910 211.786652,138.621750 207.682541,152.873734 
	C204.567627,152.873734 201.762177,152.873734 198.493607,152.873734 
	C194.463623,138.796432 190.417984,124.664452 185.992920,109.207092 
	C189.915054,109.936531 193.004974,110.511200 196.194366,111.514511 
z"/>
<path fill="#e0f2e9" opacity="1.000000" stroke="none" 
	d="
M180.829803,116.992882 
	C176.384827,116.993019 172.422028,116.993019 168.236023,116.993019 
	C168.236023,120.398422 168.236023,123.479965 168.236023,126.983032 
	C172.498444,126.983032 176.748947,126.983032 181.341339,126.983032 
	C181.341339,129.447937 181.341339,131.502655 181.341339,134.010406 
	C177.118210,134.010406 172.865601,134.010406 168.315125,134.010406 
	C168.315125,138.020874 168.315125,141.600479 168.315125,145.605804 
	C173.300064,145.605804 178.380905,145.605804 183.763474,145.605804 
	C183.763474,148.103500 183.763474,150.194427 183.763474,152.648193 
	C175.947510,152.648193 167.883118,152.648193 159.478516,152.648193 
	C159.478516,138.623581 159.478516,124.425049 159.478516,109.984695 
	C167.532623,109.984695 175.466644,109.984695 183.822189,109.984695 
	C183.017471,112.367607 186.765244,116.039604 180.829803,116.992882 
z"/>
<path fill="#e0f2e9" opacity="1.000000" stroke="none" 
	d="
M237.128876,116.993080 
	C234.034225,116.599648 232.584778,117.298431 232.956085,120.363853 
	C233.209518,122.456017 233.004578,124.603714 233.004578,127.133621 
	C237.647003,127.133621 241.899826,127.133621 246.413254,127.133621 
	C246.413254,129.464813 246.413254,131.398575 246.413254,133.969086 
	C242.190811,133.969086 237.818649,133.969086 233.237183,133.969086 
	C233.237183,138.166382 233.237183,141.743637 233.237183,145.746414 
	C238.452805,145.746414 243.536194,145.746414 248.836349,145.746414 
	C248.836349,148.255600 248.836349,150.346924 248.836349,152.723938 
	C240.811981,152.723938 232.744934,152.723938 224.408508,152.723938 
	C224.408508,138.598663 224.408508,124.528992 224.408508,110.101418 
	C232.458557,110.101418 240.498047,110.101418 248.786652,110.101418 
	C248.786652,112.165970 248.786652,114.265625 248.786652,116.993050 
	C245.135635,116.993050 241.372711,116.993050 237.128876,116.993080 
z"/>
<path fill="#e0f2e9" opacity="1.000000" stroke="none" 
	d="
M349.993347,146.912689 
	C349.993347,134.309219 349.993347,122.194344 349.993347,109.917419 
	C358.387604,109.917419 366.322693,109.917419 374.568604,109.917419 
	C374.568604,112.116127 374.568604,114.195412 374.568604,116.731613 
	C369.666840,116.731613 364.587494,116.731613 359.168396,116.731613 
	C359.168396,120.216469 359.168396,123.293503 359.168396,126.882156 
	C363.115265,126.882156 367.338074,126.882156 371.921631,126.882156 
	C371.921631,129.439575 371.921631,131.501022 371.921631,134.057449 
	C367.875916,134.057449 363.632263,134.057449 359.114075,134.057449 
	C359.114075,138.111969 359.114075,141.686600 359.114075,145.721161 
	C364.248505,145.721161 369.333466,145.721161 374.665405,145.721161 
	C374.665405,148.249588 374.665405,150.330582 374.665405,152.709564 
	C366.638092,152.709564 358.570801,152.709564 349.993347,152.709564 
	C349.993347,150.947815 349.993347,149.174545 349.993347,146.912689 
z"/>
<path fill="#e0f2e9" opacity="1.000000" stroke="none" 
	d="
M390.957092,153.002441 
	C389.879669,152.425888 388.692352,151.760361 388.765198,151.289948 
	C390.928345,137.318878 383.403595,125.969437 378.752563,113.849937 
	C378.395782,112.920113 377.983826,112.009697 377.670258,111.066086 
	C377.576538,110.784081 377.730194,110.419876 377.784698,109.978294 
	C378.407410,109.904785 379.059753,109.861794 379.699188,109.746902 
	C384.689850,108.850143 387.674469,110.475426 388.730011,115.840134 
	C389.512299,119.816132 391.234436,123.607201 393.050262,129.003204 
	C394.730377,123.947136 395.936371,120.307205 397.149353,116.669609 
	C399.735657,108.913445 399.737152,108.913940 408.545074,110.262505 
	C404.300537,124.201324 394.076874,136.536270 398.201141,153.004395 
	C395.277618,153.004395 393.356079,153.004395 390.957092,153.002441 
z"/>
<path fill="#e0f2e9" opacity="1.000000" stroke="none" 
	d="
M320.991699,126.001923 
	C320.991699,120.379601 320.991699,115.256699 320.991699,109.945251 
	C323.977234,109.945251 326.575043,109.945251 329.634338,109.945251 
	C329.634338,121.729019 329.634338,133.461166 329.634338,145.555725 
	C334.835083,145.555725 339.592285,145.555725 344.698486,145.555725 
	C344.698486,148.116592 344.698486,150.319748 344.698486,152.771362 
	C337.003876,152.771362 329.267242,152.771362 320.991699,152.771362 
	C320.991699,144.002975 320.991699,135.252151 320.991699,126.001923 
z"/>
<path fill="#e0f2e9" opacity="1.000000" stroke="none" 
	d="
M50.921810,145.917816 
	C46.339111,137.140488 47.728821,129.085571 54.507004,123.771782 
	C60.935127,118.732407 69.936188,119.058983 75.969315,124.550468 
	C81.695236,129.762314 82.938843,138.863785 78.826180,145.458511 
	C72.552132,155.519043 59.426907,155.892075 50.921810,145.917816 
M56.225735,129.889465 
	C53.051319,134.979507 52.887905,139.794754 56.126404,143.636536 
	C59.100658,147.164841 62.905029,148.861557 67.605286,147.466202 
	C72.412186,146.039200 75.147224,142.642288 75.694008,137.819443 
	C76.228874,133.101624 74.041786,129.323364 69.888229,127.165932 
	C65.149353,124.704468 60.610264,125.402740 56.225735,129.889465 
z"/>
<path fill="#FBFBFB" opacity="0.000000" stroke="none" 
	d="
M123.285469,144.389923 
	C118.974457,146.216843 114.846054,147.573441 110.989235,149.479553 
	C107.206520,151.349060 105.510727,150.358627 103.991104,146.531509 
	C94.128624,121.693176 84.058113,96.937439 73.828148,71.590759 
	C80.436623,66.628189 79.670624,60.537544 76.420532,53.632362 
	C72.902023,46.156853 70.211525,38.291615 67.159904,30.596352 
	C67.602623,30.285126 68.045349,29.973900 68.488068,29.662674 
	C69.332016,30.731867 70.469109,31.679335 70.971909,32.890186 
	C74.027451,40.248623 77.150970,47.591320 79.824432,55.091602 
	C81.661011,60.244041 85.009056,62.826748 90.248512,63.853268 
	C91.920006,64.180756 94.043419,65.759308 94.676895,67.294800 
	C104.552551,91.232414 114.250191,115.243919 123.845444,139.295593 
	C124.391693,140.664825 123.701645,142.527267 123.285469,144.389923 
z"/>
<path fill="#F5F5F5" opacity="0.000000" stroke="none" 
	d="
M301.994324,52.271797 
	C304.577484,51.396946 307.655273,49.954933 309.580444,50.888847 
	C311.150391,51.650440 312.129425,55.342316 311.876740,57.565067 
	C311.699219,59.126312 309.198761,60.780266 307.382385,61.678757 
	C306.069092,62.328396 304.175781,61.805473 301.990631,61.805473 
	C301.990631,58.625973 301.990631,55.678890 301.994324,52.271797 
z"/>
<path fill="#F6F6F6" opacity="0.000000" stroke="none" 
	d="
M302.015625,34.277885 
	C304.774658,33.932220 307.815613,33.390358 310.121033,34.449505 
	C311.225281,34.956829 311.699158,38.727077 311.126678,40.615871 
	C309.760834,45.122379 305.717529,43.581871 301.995361,43.949398 
	C301.995361,40.605000 301.995361,37.672203 302.015625,34.277885 
z"/>
<path fill="#F9F9F9" opacity="0.000000" stroke="none" 
	d="
M380.437714,43.125000 
	C377.490540,44.584148 374.766296,45.689857 371.328491,47.085163 
	C371.328491,41.777115 371.328491,37.708164 371.328491,33.601948 
	C379.808228,31.813540 381.933563,33.862713 380.437714,43.125000 
z"/>
<path fill="#F9F9F9" opacity="0.000000" stroke="none" 
	d="
M263.004333,125.833443 
	C263.004303,122.738411 263.004303,120.112846 263.004303,116.049347
	C266.488129,117.230957 270.166718,117.459061 271.952515,119.415169 
	C273.318237,120.911163 273.368866,125.468971 272.057465,127.082741 
	C270.368042,129.161728 266.734650,129.660995 263.308746,131.106323 
	C263.146637,128.548553 263.075500,127.425728 263.004333,125.833443 
z"/>
<path fill="#F2F2F2" opacity="0.000000" stroke="none" 
	d="
M277.505737,43.552311 
	C274.517151,44.793110 271.757416,45.716854 268.416870,46.835007 
	C268.416870,41.566139 268.416870,37.528267 268.416870,33.501686 
	C277.300507,32.052551 279.547913,34.428871 277.505737,43.552311 
z"/>
<path fill="#FAFAFA" opacity="0.000000" stroke="none" 
	d="
M56.488510,129.598877 
	C60.610264,125.402740 65.149353,124.704468 69.888229,127.165932 
	C74.041786,129.323364 76.228874,133.101624 75.694008,137.819443 
	C75.147224,142.642288 72.412186,146.039200 67.605286,147.466202 
	C62.905029,148.861557 59.100658,147.164841 56.126404,143.636536 
	C52.887905,139.794754 53.051319,134.979507 56.488510,129.598877 
z"/>
</svg>

